<?xml version="1.0" encoding="utf-8"?>
<!-- Generator: Adobe Illustrator 27.1.1, SVG Export Plug-In . SVG Version: 6.00 Build 0)  -->
<svg version="1.1" id="Layer_1" xmlns="http://www.w3.org/2000/svg" xmlns:xlink="http://www.w3.org/1999/xlink" x="0px" y="0px"
	 viewBox="0 0 448 512" style="enable-background:new 0 0 448 512;" xml:space="preserve">
<style type="text/css">
	.st0{fill:#BE84FF;}
</style>
<path class="st0" d="M152,64h144V24c0-13.2,10.7-24,24-24s24,10.8,24,24v40h40c35.3,0,64,28.7,64,64v320c0,35.3-28.7,64-64,64H64
	c-35.3,0-64-28.7-64-64V128c0-35.3,28.6-64,64-64h40V24c0-13.2,10.7-24,24-24s24,10.8,24,24V64z M48,448c0,8.8,7.2,16,16,16h320
	c8.8,0,16-7.2,16-16V192H48V448z"/>
</svg>
